<svg width="32" height="32" viewBox="0 0 24 24" fill="none" xmlns="http://www.w3.org/2000/svg">
  <path d="M6 12H8M8 12H10M8 12V10M8 12V14M16 10V12M18 11V13" stroke="currentColor" stroke-width="2" stroke-linecap="round" stroke-linejoin="round"/>
  <path d="M2 14C2 11.2386 4.23858 9 7 9H17C19.7614 9 22 11.2386 22 14C22 16.7614 19.7614 19 17 19H16C15.4477 19 15 18.5523 15 18V16C15 15.4477 14.5523 15 14 15H10C9.44772 15 9 15.4477 9 16V18C9 18.5523 8.55228 19 8 19H7C4.23858 19 2 16.7614 2 14Z" stroke="currentColor" stroke-width="2"/>
</svg>